<?xml version="1.0" encoding="UTF-8"?>
<svg version="1.1" xmlns="http://www.w3.org/2000/svg" width="128" height="128">
<path d="M0 0 C0.7044928 -0.00012085 1.4089856 -0.0002417 2.13482666 -0.00036621 C13.32598168 0.02694556 23.73902809 0.92771461 34.4375 4.375 C35.43265625 4.68695312 36.4278125 4.99890625 37.453125 5.3203125 C45.68544955 8.25338622 53.43446394 13.36892787 57.4375 21.375 C57.81692283 25.92807393 57.92853644 28.39292713 55.875 32.5 C44.69284815 45.68920474 28.11549284 49.40862197 11.5 51.125 C9.81367472 51.22944009 8.12594567 51.31374724 6.4375 51.375 C5.62023437 51.41496094 4.80296875 51.45492187 3.9609375 51.49609375 C-15.31535096 51.99110418 -37.05762339 48.8256851 -52.1171875 35.9375 C-55.77114211 31.98727879 -56.07093192 28.10484919 -55.92578125 22.90234375 C-55.18131957 17.72313184 -52.55348747 14.90305466 -48.49609375 11.7890625 C-33.70001623 2.18501877 -17.24078417 -0.04546487 0 0 Z " fill="#FF5EAF" transform="translate(63.5625,-0.375)"/>
<path d="M0 0 C0.61875 0.77472656 1.2375 1.54945312 1.875 2.34765625 C11.26413975 14.06682148 25.95602541 19.16656928 40.64746094 20.8190918 C61.84600073 22.44924103 87.90513909 22.78552133 105.34765625 8.625 C108.0031993 6.01340211 109.95147349 3.10382804 112 0 C112.33 0 112.66 0 113 0 C113.11689626 3.37470504 113.18747934 6.7488843 113.25 10.125 C113.28351563 11.07632813 113.31703125 12.02765625 113.3515625 13.0078125 C113.44831921 19.97429572 112.12849768 23.40711595 107.5 28.72265625 C102.32468528 33.3453983 96.48911784 35.69714449 90 38 C89.15824219 38.2990625 88.31648438 38.598125 87.44921875 38.90625 C64.30685455 46.10449703 34.65916762 44.98473544 13 34 C7.27907166 30.82170648 3.0075884 27.99521493 0 22 C-0.47034606 18.19231491 -0.37845483 14.45394192 -0.25 10.625 C-0.23195313 9.60277344 -0.21390625 8.58054687 -0.1953125 7.52734375 C-0.14839491 5.01725251 -0.08276729 2.50912236 0 0 Z " fill="#FF5EAF" transform="translate(8,60)"/>
<path d="M0 0 C0.556875 0.721875 1.11375 1.44375 1.6875 2.1875 C10.6766239 13.12021826 22.33551404 17.63778833 36 20 C36.92071289 20.17055908 37.84142578 20.34111816 38.79003906 20.5168457 C59.056761 23.56733572 86.00779404 22.60424324 103.40234375 10.30078125 C107.07127842 7.24222992 109.7914051 4.28727244 112 0 C112.33 0 112.66 0 113 0 C113.11689626 3.37470504 113.18747934 6.7488843 113.25 10.125 C113.28351563 11.07632813 113.31703125 12.02765625 113.3515625 13.0078125 C113.44831921 19.97429572 112.12849768 23.40711595 107.5 28.72265625 C102.32387508 33.346122 96.48890463 35.69429785 90 38 C89.16984375 38.2990625 88.3396875 38.598125 87.484375 38.90625 C65.51750307 45.81407136 35.87089249 45.50548248 14.98828125 35.125 C3.2283295 28.47103909 3.2283295 28.47103909 0 22 C-0.46931396 18.19216553 -0.37845633 14.45398685 -0.25 10.625 C-0.23195313 9.60277344 -0.21390625 8.58054687 -0.1953125 7.52734375 C-0.14839491 5.01725251 -0.08276729 2.50912236 0 0 Z " fill="#FF5EAF" transform="translate(8,34)"/>
<path d="M0 0 C0.61875 0.77472656 1.2375 1.54945312 1.875 2.34765625 C11.79092658 14.72433667 26.80234882 18.76553201 42 21 C62.81898847 22.20518737 88.53001377 22.69887189 105.5625 8.5 C108.282536 5.92104471 110.27201485 3.35432412 112 0 C112.33 0 112.66 0 113 0 C113.11689626 3.37470504 113.18747934 6.7488843 113.25 10.125 C113.28351563 11.07632813 113.31703125 12.02765625 113.3515625 13.0078125 C113.44831921 19.97429572 112.12849768 23.40711595 107.5 28.72265625 C99.30029944 36.04686795 88.52254365 38.73971486 78 41 C77.26539551 41.17200928 76.53079102 41.34401855 75.77392578 41.52124023 C53.3798138 45.38630392 27.50618058 42.90738734 8 31 C4.3037311 28.38961039 1.71539124 26.22980837 0 22 C-0.35044976 18.22009543 -0.28211162 14.47924265 -0.1875 10.6875 C-0.17396484 9.66076172 -0.16042969 8.63402344 -0.14648438 7.57617188 C-0.11123883 5.05024091 -0.061967 2.5253934 0 0 Z " fill="#FF5EAF" transform="translate(8,86)"/>
</svg>
